<svg xmlns="http://www.w3.org/2000/svg" viewBox="0 0 192 192" width="192" height="192">
  <rect width="192" height="192" rx="40" fill="#0f172a"/>
  <!-- Engranaje verde -->
  <path d="
    M96 60
    a36 36 0 1 1 0 72
    a36 36 0 0 1 0 -72
  " fill="none"/>
  <!-- Dientes del engranaje (12 dientes) -->
  <path d="
    M108.5 36.2 L103.5 52.5
    A44 44 0 0 1 116.5 59.5
    L131.8 51.5 L140.5 60.2 L132.5 75.5
    A44 44 0 0 1 139.5 88.5
    L155.8 93.5 L155.8 105.5 L139.5 110.5
    A44 44 0 0 1 132.5 123.5
    L140.5 138.8 L131.8 147.5 L116.5 139.5
    A44 44 0 0 1 103.5 146.5
    L108.5 162.8 L96.5 162.8 L83.5 162.8
    L88.5 146.5
    A44 44 0 0 1 75.5 139.5
    L60.2 147.5 L51.5 138.8 L59.5 123.5
    A44 44 0 0 1 52.5 110.5
    L36.2 105.5 L36.2 93.5 L52.5 88.5
    A44 44 0 0 1 59.5 75.5
    L51.5 60.2 L60.2 51.5 L75.5 59.5
    A44 44 0 0 1 88.5 52.5
    L83.5 36.2 L96.5 36.2 Z
  " fill="#10b981"/>
  <!-- Círculo interior (hueco) -->
  <circle cx="96" cy="97" r="24" fill="#0f172a"/>
  <!-- Círculo central decorativo -->
  <circle cx="96" cy="97" r="10" fill="#34d399"/>
</svg>
